<?xml version="1.0" standalone="no"?>
<!DOCTYPE svg PUBLIC "-//W3C//DTD SVG 20010904//EN"
 "http://www.w3.org/TR/2001/REC-SVG-20010904/DTD/svg10.dtd">
<svg version="1.0" xmlns="http://www.w3.org/2000/svg"
 width="512.000000pt" height="512.000000pt" viewBox="0 0 512.000000 512.000000"
 preserveAspectRatio="xMidYMid meet">
<metadata>
Created by potrace 1.14, written by Peter Selinger 2001-2017
</metadata>
<g transform="translate(0.000000,512.000000) scale(0.100000,-0.100000)"
fill="#000000" stroke="none">
<path d="M1010 5113 c-123 -21 -239 -82 -336 -178 -88 -88 -138 -172 -170
-285 -18 -62 -19 -149 -19 -2075 0 -1105 4 -2032 8 -2058 30 -186 192 -393
357 -457 19 -7 40 -17 45 -21 6 -4 39 -14 75 -23 57 -13 203 -15 1135 -13
l1070 2 65 23 c242 87 418 312 433 555 1 26 5 48 8 51 3 3 149 6 324 7 342 1
395 7 466 54 55 36 106 94 136 155 l28 55 3 1304 c2 1434 5 1375 -58 1466 -42
61 -104 111 -169 137 -53 20 -71 21 -393 22 -186 1 -338 3 -339 6 -1 3 -2 174
-4 380 -2 356 -3 379 -25 445 -65 208 -208 352 -425 432 -47 17 -110 18 -1120
19 -588 1 -1081 -1 -1095 -3z"/>
</g>
</svg>
